<mxfile host="app.diagrams.net" modified="2021-03-15T23:46:31.093Z" agent="5.0 (Windows NT 10.0; Win64; x64) AppleWebKit/537.36 (KHTML, like Gecko) Chrome/89.0.4389.82 Safari/537.36" etag="P4FxMwvlL8K0_Q_9wm_c" version="14.4.3" type="github">
  <diagram id="_yiUwRokFOnQKQJ4L_2b" name="Page-1">
    <mxGraphModel dx="2150" dy="1375" grid="1" gridSize="40" guides="1" tooltips="1" connect="1" arrows="1" fold="1" page="1" pageScale="1" pageWidth="1169" pageHeight="827" math="0" shadow="0">
      <root>
        <mxCell id="0" />
        <mxCell id="1" parent="0" />
        <mxCell id="QUq8jVQ-3CsHZDVAN7Um-1" value="" style="rounded=0;whiteSpace=wrap;html=1;fillColor=none;strokeWidth=4;" vertex="1" parent="1">
          <mxGeometry width="600" height="600" as="geometry" />
        </mxCell>
        <mxCell id="QUq8jVQ-3CsHZDVAN7Um-2" value="" style="rounded=0;whiteSpace=wrap;html=1;strokeWidth=1;fillColor=#ffe6cc;strokeColor=#d79b00;" vertex="1" parent="1">
          <mxGeometry x="200" y="270" width="120" height="60" as="geometry" />
        </mxCell>
        <mxCell id="QUq8jVQ-3CsHZDVAN7Um-3" value="" style="ellipse;whiteSpace=wrap;html=1;aspect=fixed;strokeWidth=1;fillColor=#dae8fc;strokeColor=#6c8ebf;" vertex="1" parent="1">
          <mxGeometry x="40" y="40" width="40" height="40" as="geometry" />
        </mxCell>
        <mxCell id="QUq8jVQ-3CsHZDVAN7Um-4" value="" style="ellipse;whiteSpace=wrap;html=1;aspect=fixed;strokeWidth=1;fillColor=#f8cecc;strokeColor=#b85450;" vertex="1" parent="1">
          <mxGeometry x="520" y="520" width="40" height="40" as="geometry" />
        </mxCell>
      </root>
    </mxGraphModel>
  </diagram>
</mxfile>
